<?xml version="1.0" encoding="utf-8"?>
<!-- Generator: Adobe Illustrator 24.3.0, SVG Export Plug-In . SVG Version: 6.00 Build 0)  -->
<svg version="1.1" id="Layer_1" xmlns="http://www.w3.org/2000/svg" xmlns:xlink="http://www.w3.org/1999/xlink" x="0px" y="0px"
	 viewBox="0 0 1080 1080" style="enable-background:new 0 0 1080 1080;" xml:space="preserve">
<style type="text/css">
	.st0{display:none;fill:url(#SVGID_1_);}
	.st1{fill:url(#SVGID_2_);}
	.st2{fill:url(#SVGID_3_);}
	.st3{fill:url(#SVGID_4_);}
	.st4{fill:url(#SVGID_5_);}
	.st5{fill:url(#SVGID_6_);}
	.st6{fill:url(#SVGID_7_);}
	.st7{fill:url(#SVGID_8_);}
	.st8{fill:url(#SVGID_9_);}
	.st9{fill:url(#SVGID_10_);}
	.st10{fill:url(#SVGID_11_);}
	.st11{fill:url(#SVGID_12_);}
	.st12{fill:url(#SVGID_13_);}
	.st13{fill:url(#SVGID_14_);}
	.st14{fill:url(#SVGID_15_);}
	.st15{fill:url(#SVGID_16_);}
	.st16{fill:url(#SVGID_17_);}
	.st17{fill:url(#SVGID_18_);}
	.st18{fill:url(#SVGID_19_);}
	.st19{fill:url(#SVGID_20_);}
	.st20{fill:url(#SVGID_21_);}
	.st21{fill:url(#SVGID_22_);}
	.st22{fill:url(#SVGID_23_);}
	.st23{fill:url(#SVGID_24_);}
	.st24{fill:url(#SVGID_25_);}
	.st25{fill:url(#SVGID_26_);}
	.st26{fill:url(#SVGID_27_);}
</style>
<g>
	<g>
		<linearGradient id="SVGID_1_" gradientUnits="userSpaceOnUse" x1="-403.1953" y1="546.3181" x2="1483.4083" y2="546.3181">
			<stop  offset="0.2593" style="stop-color:#FFDB6F"/>
			<stop  offset="1" style="stop-color:#FDBC5F"/>
		</linearGradient>
		<rect x="-403.2" y="-396.98" class="st0" width="1886.6" height="1886.59"/>
		<g>
			<g id="_x36_98_x2C__Manager_x2C__Person_x2C__Tasks_x2C__Consultant_x2C__Manager">
				<g>
					<linearGradient id="SVGID_2_" gradientUnits="userSpaceOnUse" x1="47.7003" y1="661.4307" x2="228.8213" y2="661.4307">
						<stop  offset="0.2593" style="stop-color:#FFDB6F"/>
						<stop  offset="1" style="stop-color:#FDBC5F"/>
					</linearGradient>
					<path class="st1" d="M228.82,661.39c0-49.05-41.52-90.55-90.56-90.55c-7.54,0-15.1,0-22.64,1.88l30.18,83.01
						c1.89,3.77,0,9.43-1.89,13.21c-1.87,1.88-5.65,3.77-7.54,3.77c-1.89,0-1.89,0-3.78,0l-83-32.07
						c-1.89,7.55-1.89,13.2-1.89,20.75c0,50.94,39.63,90.56,90.56,90.56C187.3,753.84,228.82,712.34,228.82,661.39z"/>
					<linearGradient id="SVGID_3_" gradientUnits="userSpaceOnUse" x1="104.3008" y1="63.3432" x2="198.6226" y2="63.3432">
						<stop  offset="0.2593" style="stop-color:#FFDB6F"/>
						<stop  offset="1" style="stop-color:#FDBC5F"/>
					</linearGradient>
					<polygon class="st2" points="198.62,52.03 198.62,16.18 104.3,16.18 104.3,110.51 198.62,110.51 					"/>
					<linearGradient id="SVGID_4_" gradientUnits="userSpaceOnUse" x1="8.0891" y1="936.8389" x2="57.1315" y2="936.8389">
						<stop  offset="0.2593" style="stop-color:#FFDB6F"/>
						<stop  offset="1" style="stop-color:#FDBC5F"/>
					</linearGradient>
					<path class="st3" d="M32.62,912.32c-13.21,0-24.53,11.32-24.53,24.52c0,13.21,11.32,24.52,24.53,24.52
						c13.19,0,24.51-11.31,24.51-24.52C57.13,921.75,45.81,912.32,32.62,912.32z"/>
					<linearGradient id="SVGID_5_" gradientUnits="userSpaceOnUse" x1="221.2634" y1="86.9279" x2="292.9631" y2="86.9279">
						<stop  offset="0.2593" style="stop-color:#FFDB6F"/>
						<stop  offset="1" style="stop-color:#FDBC5F"/>
					</linearGradient>
					<rect x="221.26" y="63.35" class="st4" width="71.7" height="47.16"/>
					<linearGradient id="SVGID_6_" gradientUnits="userSpaceOnUse" x1="38.2709" y1="601.025" x2="115.6202" y2="601.025">
						<stop  offset="0.2593" style="stop-color:#FFDB6F"/>
						<stop  offset="1" style="stop-color:#FDBC5F"/>
					</linearGradient>
					<path class="st5" d="M87.33,561.4c-20.77,11.32-37.74,28.3-49.06,49.05l77.35,30.19L87.33,561.4z"/>
					<linearGradient id="SVGID_7_" gradientUnits="userSpaceOnUse" x1="57.1315" y1="192.5793" x2="315.6037" y2="192.5793">
						<stop  offset="0.2593" style="stop-color:#FFDB6F"/>
						<stop  offset="1" style="stop-color:#FDBC5F"/>
					</linearGradient>
					<polygon class="st6" points="315.6,133.15 304.28,133.15 209.94,133.15 92.98,133.15 57.13,133.15 57.13,252.01 315.6,252.01 
											"/>
					<linearGradient id="SVGID_8_" gradientUnits="userSpaceOnUse" x1="309.9337" y1="392.5562" x2="694.7994" y2="392.5562">
						<stop  offset="0.2593" style="stop-color:#FFDB6F"/>
						<stop  offset="1" style="stop-color:#FDBC5F"/>
					</linearGradient>
					<path class="st7" d="M611.8,346.33H309.93v9.44c0,45.28,37.74,83.01,83.02,83.01h22.64H694.8v-11.32
						C692.93,382.18,657.08,346.33,611.8,346.33z"/>
					<linearGradient id="SVGID_9_" gradientUnits="userSpaceOnUse" x1="836.2905" y1="217.1043" x2="1000.4409" y2="217.1043">
						<stop  offset="0.2593" style="stop-color:#FFDB6F"/>
						<stop  offset="1" style="stop-color:#FDBC5F"/>
					</linearGradient>
					<path class="st8" d="M902.32,191.63C902.32,191.63,902.32,193.52,902.32,191.63c-1.87,1.89-3.76,3.78-3.76,3.78s0,0-1.89,1.89
						c0,0-1.89,1.88-3.78,1.88c0,0,0,0-1.89,1.89l-1.87,1.88c0,0-1.89,0-1.89,1.89l-1.89,1.89c0,0-1.89,0-1.89,1.88l-1.89,1.89
						c0,0-1.87,0-1.87,1.89l-1.89,1.88c0,0-1.89,0-1.89,1.89c-1.89,0-1.89,1.89-3.78,1.89l0,0c-1.89,0-1.89,1.88-3.76,1.88h-1.89
						c0,0-1.89,0-1.89,1.89h-1.89c0,0-1.89,0-1.89,1.89h-1.89c0,0-1.87,0-1.87,1.88h-1.89c-1.89,0-1.89,0-3.78,0h-1.89
						c-1.89,0-3.76,0-5.65,1.89l0,0c-1.89,0-1.89,0-3.78,0h-1.89h-1.89c5.67,39.62,39.63,71.69,81.13,71.69
						c45.28,0,83.02-37.73,83.02-83.01c0-41.5-32.09-75.46-71.7-81.12v1.89v1.88c0,1.89,0,1.89,0,3.77l0,0c0,1.89,0,3.78-1.89,5.66
						v1.89c0,1.89,0,1.89,0,3.77v1.89c0,1.89,0,1.89-1.89,3.77v1.89c0,0,0,1.89-1.87,1.89v1.88c0,0,0,1.89-1.89,1.89V169
						c0,1.88-1.89,1.88-1.89,3.77l0,0c0,1.89-1.89,1.89-1.89,3.77v1.89l-1.89,1.89c0,0,0,1.88-1.89,1.88l-1.87,1.89
						c0,0,0,1.89-1.89,1.89l-1.89,1.88c0,0,0,1.89-1.89,1.89C904.21,189.75,902.32,191.63,902.32,191.63z"/>
					<linearGradient id="SVGID_10_" gradientUnits="userSpaceOnUse" x1="740.0787" y1="121.8291" x2="906.1003" y2="121.8291">
						<stop  offset="0.2593" style="stop-color:#FFDB6F"/>
						<stop  offset="1" style="stop-color:#FDBC5F"/>
					</linearGradient>
					<path class="st9" d="M823.1,204.84c45.28,0,83-37.73,83-83.01c0-45.28-37.72-83.01-83-83.01c-45.28,0-83.02,37.73-83.02,83.01
						C740.08,167.11,777.82,204.84,823.1,204.84z"/>
					<linearGradient id="SVGID_11_" gradientUnits="userSpaceOnUse" x1="425.0248" y1="595.3691" x2="692.9282" y2="595.3691">
						<stop  offset="0.2593" style="stop-color:#FFDB6F"/>
						<stop  offset="1" style="stop-color:#FDBC5F"/>
					</linearGradient>
					<path class="st10" d="M692.93,595.36V461.42h-267.9v133.94c0,73.58,60.36,133.95,133.95,133.95
						C632.55,729.32,692.93,668.94,692.93,595.36z"/>
					<linearGradient id="SVGID_12_" gradientUnits="userSpaceOnUse" x1="811.7786" y1="675.5458" x2="1023.0627" y2="675.5458">
						<stop  offset="0.2593" style="stop-color:#FFDB6F"/>
						<stop  offset="1" style="stop-color:#FDBC5F"/>
					</linearGradient>
					<polygon class="st11" points="811.78,699.13 1023.06,699.13 1023.06,651.96 847.61,651.96 811.78,651.96 					"/>
					<linearGradient id="SVGID_13_" gradientUnits="userSpaceOnUse" x1="858.931" y1="605.7397" x2="1070.2339" y2="605.7397">
						<stop  offset="0.2593" style="stop-color:#FFDB6F"/>
						<stop  offset="1" style="stop-color:#FDBC5F"/>
					</linearGradient>
					<polygon class="st12" points="858.93,582.16 858.93,629.32 1036.27,629.32 1070.23,629.32 1070.23,582.16 					"/>
					<linearGradient id="SVGID_14_" gradientUnits="userSpaceOnUse" x1="975.9124" y1="853.8318" x2="1047.5933" y2="853.8318">
						<stop  offset="0.2593" style="stop-color:#FFDB6F"/>
						<stop  offset="1" style="stop-color:#FDBC5F"/>
					</linearGradient>
					<path class="st13" d="M1011.76,817.99c-18.88,0-35.85,15.09-35.85,35.84c0,18.87,15.08,35.85,35.85,35.85
						c18.86,0,35.83-15.1,35.83-35.85C1047.59,833.08,1030.62,817.99,1011.76,817.99z"/>
					<linearGradient id="SVGID_15_" gradientUnits="userSpaceOnUse" x1="198.6226" y1="958.5336" x2="881.5717" y2="958.5336">
						<stop  offset="0.2593" style="stop-color:#FFDB6F"/>
						<stop  offset="1" style="stop-color:#FDBC5F"/>
					</linearGradient>
					<path class="st14" d="M813.67,838.74h-77.35l-90.56,116.97c-1.89,3.77-5.67,3.77-9.43,3.77c-1.89,0-5.67,0-7.56-1.89
						l-73.57-54.71l-77.35,54.71c-1.89,1.89-3.78,1.89-7.54,1.89c-3.78,0-7.56-1.89-9.43-3.77l-90.56-116.97H268.43
						c-37.72,0-69.81,30.18-69.81,69.8v169.79h71.7v-83.01c0-5.66,5.65-11.31,11.32-11.31c5.65,0,11.32,5.65,11.32,11.31v83.01
						h471.65v-83.01c0-5.66,5.65-11.31,11.32-11.31c5.65,0,11.32,5.65,11.32,11.31v83.01h94.32V908.54
						C881.57,868.92,851.39,838.74,813.67,838.74z"/>
					<linearGradient id="SVGID_16_" gradientUnits="userSpaceOnUse" x1="389.1748" y1="865.1475" x2="532.5559" y2="865.1475">
						<stop  offset="0.2593" style="stop-color:#FFDB6F"/>
						<stop  offset="1" style="stop-color:#FDBC5F"/>
					</linearGradient>
					<polygon class="st15" points="389.17,827.42 472.19,931.18 532.56,885.9 411.82,799.12 					"/>
					<linearGradient id="SVGID_17_" gradientUnits="userSpaceOnUse" x1="572.1671" y1="865.1475" x2="713.679" y2="865.1475">
						<stop  offset="0.2593" style="stop-color:#FFDB6F"/>
						<stop  offset="1" style="stop-color:#FDBC5F"/>
					</linearGradient>
					<polygon class="st16" points="713.68,827.42 692.93,799.12 572.17,885.9 632.55,931.18 					"/>
					<linearGradient id="SVGID_18_" gradientUnits="userSpaceOnUse" x1="279.7537" y1="523.6776" x2="328.813" y2="523.6776">
						<stop  offset="0.2593" style="stop-color:#FFDB6F"/>
						<stop  offset="1" style="stop-color:#FDBC5F"/>
					</linearGradient>
					<path class="st17" d="M304.28,499.15c13.54,0,24.53,10.98,24.53,24.52c0,13.55-10.99,24.53-24.53,24.53
						c-13.54,0-24.53-10.98-24.53-24.53C279.75,510.13,290.74,499.15,304.28,499.15z"/>
					<linearGradient id="SVGID_19_" gradientUnits="userSpaceOnUse" x1="43.9391" y1="429.3474" x2="92.9815" y2="429.3474">
						<stop  offset="0.2593" style="stop-color:#FFDB6F"/>
						<stop  offset="1" style="stop-color:#FDBC5F"/>
					</linearGradient>
					<path class="st18" d="M68.45,404.82c13.56,0,24.53,10.98,24.53,24.52c0,13.55-10.97,24.53-24.53,24.53
						c-13.54,0-24.51-10.98-24.51-24.53C43.94,415.8,54.91,404.82,68.45,404.82z"/>
					<linearGradient id="SVGID_20_" gradientUnits="userSpaceOnUse" x1="751.4" y1="357.6559" x2="800.4593" y2="357.6559">
						<stop  offset="0.2593" style="stop-color:#FFDB6F"/>
						<stop  offset="1" style="stop-color:#FDBC5F"/>
					</linearGradient>
					<path class="st19" d="M775.93,333.13c13.54,0,24.53,10.98,24.53,24.52c0,13.55-10.99,24.53-24.53,24.53
						c-13.54,0-24.53-10.98-24.53-24.53C751.4,344.11,762.39,333.13,775.93,333.13z"/>
					<linearGradient id="SVGID_21_" gradientUnits="userSpaceOnUse" x1="1011.7621" y1="451.9871" x2="1060.8026" y2="451.9871">
						<stop  offset="0.2593" style="stop-color:#FFDB6F"/>
						<stop  offset="1" style="stop-color:#FDBC5F"/>
					</linearGradient>
					<path class="st20" d="M1036.27,427.46c13.56,0,24.53,10.98,24.53,24.52c0,13.55-10.97,24.53-24.53,24.53
						c-13.54,0-24.51-10.98-24.51-24.53C1011.76,438.44,1022.73,427.46,1036.27,427.46z"/>
					<linearGradient id="SVGID_22_" gradientUnits="userSpaceOnUse" x1="609.907" y1="99.1932" x2="658.9664" y2="99.1932">
						<stop  offset="0.2593" style="stop-color:#FFDB6F"/>
						<stop  offset="1" style="stop-color:#FDBC5F"/>
					</linearGradient>
					<path class="st21" d="M634.44,74.67c13.54,0,24.53,10.98,24.53,24.52c0,13.55-10.99,24.53-24.53,24.53
						s-24.53-10.98-24.53-24.53C609.91,85.65,620.9,74.67,634.44,74.67z"/>
					<linearGradient id="SVGID_23_" gradientUnits="userSpaceOnUse" x1="987.2315" y1="52.0229" x2="1036.2739" y2="52.0229">
						<stop  offset="0.2593" style="stop-color:#FFDB6F"/>
						<stop  offset="1" style="stop-color:#FDBC5F"/>
					</linearGradient>
					<path class="st22" d="M1011.76,27.5c13.54,0,24.51,10.98,24.51,24.53c0,13.54-10.97,24.52-24.51,24.52
						c-13.56,0-24.53-10.98-24.53-24.52C987.23,38.48,998.2,27.5,1011.76,27.5z"/>
					<linearGradient id="SVGID_24_" gradientUnits="userSpaceOnUse" x1="387.2848" y1="168.9984" x2="670.2876" y2="168.9984">
						<stop  offset="0.2593" style="stop-color:#FFDB6F"/>
						<stop  offset="1" style="stop-color:#FDBC5F"/>
					</linearGradient>
					<path class="st23" d="M398.6,180.32h260.36c5.65,0,11.32-5.66,11.32-11.32c0-5.66-5.67-11.32-11.32-11.32H398.6
						c-5.65,0-11.32,5.66-11.32,11.32C387.28,174.66,392.95,180.32,398.6,180.32z"/>
					<linearGradient id="SVGID_25_" gradientUnits="userSpaceOnUse" x1="882.7529" y1="439.4739" x2="952.0903" y2="439.4739">
						<stop  offset="0.2593" style="stop-color:#FFDB6F"/>
						<stop  offset="1" style="stop-color:#FDBC5F"/>
					</linearGradient>
					<path class="st24" d="M930.63,376.52l-47.17,118.85c-1.89,5.66,0,13.21,5.67,15.09c1.87,0,3.76,0,3.76,0
						c3.78,0,9.43-1.88,11.32-7.54l47.17-118.85c1.89-5.67,0-13.21-5.67-15.1C940.06,367.09,932.52,370.86,930.63,376.52z"/>
					<linearGradient id="SVGID_26_" gradientUnits="userSpaceOnUse" x1="126.4497" y1="417.6856" x2="201.0043" y2="417.6856">
						<stop  offset="0.2593" style="stop-color:#FFDB6F"/>
						<stop  offset="1" style="stop-color:#FDBC5F"/>
					</linearGradient>
					<path class="st25" d="M134.48,323.7c-5.65,1.88-9.43,7.54-7.54,15.09l50.93,166.02c1.89,5.65,5.67,7.54,11.32,7.54
						c1.89,0,1.89,0,3.78,0c5.65-1.89,9.43-7.54,7.54-15.09l-50.93-166.02C147.69,323.7,140.15,321.81,134.48,323.7z"/>
					<linearGradient id="SVGID_27_" gradientUnits="userSpaceOnUse" x1="458.9847" y1="99.1885" x2="575.9471" y2="99.1885">
						<stop  offset="0.2593" style="stop-color:#FFDB6F"/>
						<stop  offset="1" style="stop-color:#FDBC5F"/>
					</linearGradient>
					<path class="st26" d="M470.31,110.51h94.32c5.67,0,11.32-5.66,11.32-11.32c0-5.66-5.65-11.32-11.32-11.32h-94.32
						c-5.67,0-11.32,5.66-11.32,11.32C458.98,104.85,462.75,110.51,470.31,110.51z"/>
				</g>
			</g>
			<g id="Layer_1_00000060024273823109107590000002914855639322049185_">
			</g>
		</g>
	</g>
</g>
</svg>
