<?xml version="1.0" encoding="utf-8"?>
<!-- Generator: Adobe Illustrator 24.3.0, SVG Export Plug-In . SVG Version: 6.00 Build 0)  -->
<svg version="1.1" id="Layer_1" xmlns="http://www.w3.org/2000/svg" xmlns:xlink="http://www.w3.org/1999/xlink" x="0px" y="0px"
	 viewBox="0 0 1080 1080" style="enable-background:new 0 0 1080 1080;" xml:space="preserve">
<style type="text/css">
	.st0{fill:url(#SVGID_1_);}
	.st1{fill:url(#SVGID_2_);}
	.st2{fill:url(#SVGID_3_);}
	.st3{fill:url(#SVGID_4_);}
	.st4{fill:url(#SVGID_5_);}
	.st5{fill:url(#SVGID_6_);}
	.st6{fill:url(#SVGID_7_);}
	.st7{fill:url(#SVGID_8_);}
	.st8{fill:url(#SVGID_9_);}
	.st9{fill:url(#SVGID_10_);}
	.st10{fill:url(#SVGID_11_);}
	.st11{fill:url(#SVGID_12_);}
	.st12{fill:url(#SVGID_13_);}
	.st13{fill:url(#SVGID_14_);}
</style>
<g>
	<g>
		<g>
			<g>
				<linearGradient id="SVGID_1_" gradientUnits="userSpaceOnUse" x1="387.8814" y1="1004.4089" x2="693.0018" y2="1004.4089">
					<stop  offset="0.2593" style="stop-color:#FFDB6F"/>
					<stop  offset="1" style="stop-color:#FDBC5F"/>
				</linearGradient>
				<rect x="387.88" y="964.82" class="st0" width="305.12" height="79.17"/>
			</g>
			<g>
				<linearGradient id="SVGID_2_" gradientUnits="userSpaceOnUse" x1="306.0845" y1="620.9886" x2="774.7938" y2="620.9886">
					<stop  offset="0.2593" style="stop-color:#FFDB6F"/>
					<stop  offset="1" style="stop-color:#FDBC5F"/>
				</linearGradient>
				<path class="st1" d="M772.45,625.04c0,0-180.29-294.31-197.6-317.86c-17.31-23.54-24.82,0-24.82,0v277.46
					c16.01,4.27,27.84,18.9,27.84,36.35c0,20.79-16.77,37.64-37.43,37.64c-20.68,0-37.43-16.85-37.43-37.64
					c0-17.45,11.82-32.09,27.84-36.35V307.18c0,0-7.51-23.54-24.82,0c-17.31,23.54-197.61,317.86-197.61,317.86
					s-9.36,14.13,9.37,61.22c18.73,47.09,100.68,259,100.68,259h47.73h64.66h19.17h67.34h45.05c0,0,81.94-211.91,100.68-259
					C781.82,639.17,772.45,625.04,772.45,625.04z"/>
			</g>
			<g>
				<g>
					<g>
						<linearGradient id="SVGID_3_" gradientUnits="userSpaceOnUse" x1="314.4823" y1="50.1393" x2="403.1989" y2="50.1393">
							<stop  offset="0.2593" style="stop-color:#FFDB6F"/>
							<stop  offset="1" style="stop-color:#FDBC5F"/>
						</linearGradient>
						<path class="st2" d="M358.85,94.75c-24.46,0-44.36-20.01-44.36-44.61c0-24.6,19.91-44.61,44.36-44.61
							c24.46,0,44.35,20.01,44.35,44.61C403.2,74.73,383.3,94.75,358.85,94.75z M358.85,19.47c-16.82,0-30.5,13.76-30.5,30.67
							c0,16.91,13.68,30.67,30.5,30.67c16.82,0,30.5-13.76,30.5-30.67C389.34,33.23,375.66,19.47,358.85,19.47z"/>
					</g>
					<g>
						<linearGradient id="SVGID_4_" gradientUnits="userSpaceOnUse" x1="677.6741" y1="50.1393" x2="766.4009" y2="50.1393">
							<stop  offset="0.2593" style="stop-color:#FFDB6F"/>
							<stop  offset="1" style="stop-color:#FDBC5F"/>
						</linearGradient>
						<path class="st3" d="M722.04,94.75c-24.46,0-44.36-20.01-44.36-44.61c0-24.6,19.91-44.61,44.36-44.61s44.36,20.01,44.36,44.61
							C766.4,74.73,746.49,94.75,722.04,94.75z M722.04,19.47c-16.82,0-30.5,13.76-30.5,30.67c0,16.91,13.68,30.67,30.5,30.67
							c16.82,0,30.5-13.76,30.5-30.67C752.53,33.23,738.86,19.47,722.04,19.47z"/>
					</g>
				</g>
				<g>
					<g>
						<linearGradient id="SVGID_5_" gradientUnits="userSpaceOnUse" x1="713.9318" y1="233.1236" x2="802.6585" y2="233.1236">
							<stop  offset="0.2593" style="stop-color:#FFDB6F"/>
							<stop  offset="1" style="stop-color:#FDBC5F"/>
						</linearGradient>
						<path class="st4" d="M758.3,277.73c-24.46,0-44.36-20.01-44.36-44.61c0-24.59,19.91-44.61,44.36-44.61
							s44.36,20.01,44.36,44.61C802.66,257.72,782.75,277.73,758.3,277.73z M758.3,202.45c-16.82,0-30.5,13.76-30.5,30.67
							c0,16.91,13.68,30.67,30.5,30.67c16.82,0,30.5-13.76,30.5-30.67C788.79,216.21,775.11,202.45,758.3,202.45z"/>
					</g>
					<g>
						<linearGradient id="SVGID_6_" gradientUnits="userSpaceOnUse" x1="278.2246" y1="233.1236" x2="366.9413" y2="233.1236">
							<stop  offset="0.2593" style="stop-color:#FFDB6F"/>
							<stop  offset="1" style="stop-color:#FDBC5F"/>
						</linearGradient>
						<path class="st5" d="M322.59,277.73c-24.47,0-44.36-20.01-44.36-44.61c0-24.59,19.9-44.61,44.36-44.61
							c24.46,0,44.35,20.01,44.35,44.61C366.94,257.72,347.04,277.73,322.59,277.73z M322.59,202.45
							c-16.82,0-30.51,13.76-30.51,30.67c0,16.91,13.69,30.67,30.51,30.67c16.82,0,30.5-13.76,30.5-30.67
							C353.08,216.21,339.41,202.45,322.59,202.45z"/>
					</g>
				</g>
				<g>
					<g>
						<linearGradient id="SVGID_7_" gradientUnits="userSpaceOnUse" x1="371.153" y1="158.8156" x2="505.515" y2="158.8156">
							<stop  offset="0.2593" style="stop-color:#FFDB6F"/>
							<stop  offset="1" style="stop-color:#FDBC5F"/>
						</linearGradient>
						<path class="st6" d="M502.43,235.8c-72.65-16.71-125.4-78.14-131.27-152.86l13.82-1.1c5.38,68.62,53.83,125.03,120.54,140.37
							L502.43,235.8z"/>
					</g>
					<g>
						<linearGradient id="SVGID_8_" gradientUnits="userSpaceOnUse" x1="575.418" y1="158.8082" x2="709.72" y2="158.8082">
							<stop  offset="0.2593" style="stop-color:#FFDB6F"/>
							<stop  offset="1" style="stop-color:#FDBC5F"/>
						</linearGradient>
						<path class="st7" d="M578.52,235.78l-3.1-13.58c66.69-15.37,115.11-71.78,120.48-140.36l13.82,1.1
							C703.86,157.62,651.14,219.05,578.52,235.78z"/>
					</g>
				</g>
				<g>
					<g>
						<linearGradient id="SVGID_9_" gradientUnits="userSpaceOnUse" x1="356.4117" y1="233.1236" x2="506.608" y2="233.1236">
							<stop  offset="0.2593" style="stop-color:#FFDB6F"/>
							<stop  offset="1" style="stop-color:#FDBC5F"/>
						</linearGradient>
						<rect x="356.41" y="226.16" class="st8" width="150.2" height="13.94"/>
					</g>
					<g>
						<linearGradient id="SVGID_10_" gradientUnits="userSpaceOnUse" x1="574.2753" y1="233.1236" x2="724.4612" y2="233.1236">
							<stop  offset="0.2593" style="stop-color:#FFDB6F"/>
							<stop  offset="1" style="stop-color:#FDBC5F"/>
						</linearGradient>
						<rect x="574.28" y="226.16" class="st9" width="150.19" height="13.94"/>
					</g>
				</g>
			</g>
		</g>
		<g>
			<linearGradient id="SVGID_11_" gradientUnits="userSpaceOnUse" x1="540.4416" y1="620.9886" x2="774.7938" y2="620.9886">
				<stop  offset="0.2593" style="stop-color:#FFDB6F"/>
				<stop  offset="1" style="stop-color:#FDBC5F"/>
			</linearGradient>
			<path class="st10" d="M772.45,625.04c0,0-180.29-294.31-197.6-317.86c-17.31-23.54-24.82,0-24.82,0v277.46
				c16.01,4.27,27.84,18.9,27.84,36.35c0,20.79-16.77,37.64-37.43,37.64v286.63h9.59h67.34h45.05c0,0,81.94-211.91,100.68-259
				C781.82,639.17,772.45,625.04,772.45,625.04z"/>
			<linearGradient id="SVGID_12_" gradientUnits="userSpaceOnUse" x1="540.4416" y1="1004.4089" x2="693.0018" y2="1004.4089">
				<stop  offset="0.2593" style="stop-color:#FFDB6F"/>
				<stop  offset="1" style="stop-color:#FDBC5F"/>
			</linearGradient>
			<rect x="540.44" y="964.82" class="st11" width="152.56" height="79.17"/>
		</g>
	</g>
	<linearGradient id="SVGID_13_" gradientUnits="userSpaceOnUse" x1="496.078" y1="233.1236" x2="584.8052" y2="233.1236">
		<stop  offset="0.2593" style="stop-color:#FFDB6F"/>
		<stop  offset="1" style="stop-color:#FDBC5F"/>
	</linearGradient>
	<path class="st12" d="M540.44,277.73c-24.46,0-44.36-20.01-44.36-44.61c0-24.59,19.91-44.61,44.36-44.61s44.36,20.01,44.36,44.61
		C584.81,257.72,564.9,277.73,540.44,277.73z M540.44,202.45c-16.82,0-30.5,13.76-30.5,30.67c0,16.91,13.68,30.67,30.5,30.67
		s30.5-13.76,30.5-30.67C570.94,216.21,557.26,202.45,540.44,202.45z"/>
	<linearGradient id="SVGID_14_" gradientUnits="userSpaceOnUse" x1="364.5076" y1="1060.36" x2="716.3654" y2="1060.36">
		<stop  offset="0.2593" style="stop-color:#FFDB6F"/>
		<stop  offset="1" style="stop-color:#FDBC5F"/>
	</linearGradient>
	<path class="st13" d="M716.37,1060.36c0,9.04-7.29,16.36-16.27,16.36H380.78c-8.98,0-16.27-7.33-16.27-16.36l0,0
		c0-9.04,7.29-16.36,16.27-16.36h319.32C709.08,1044,716.37,1051.32,716.37,1060.36L716.37,1060.36z"/>
</g>
</svg>
